<svg id="visual" viewBox="0 0 1440 120" width="1440" height="120" xmlns="http://www.w3.org/2000/svg" xmlns:xlink="http://www.w3.org/1999/xlink" version="1.1"><rect x="0" y="0" width="1440" height="120" fill="#002233"></rect><path d="M0 38L60 50.5C120 63 240 88 360 90C480 92 600 71 720 55.7C840 40.3 960 30.7 1080 35.7C1200 40.7 1320 60.3 1380 70.2L1440 80L1440 0L1380 0C1320 0 1200 0 1080 0C960 0 840 0 720 0C600 0 480 0 360 0C240 0 120 0 60 0L0 0Z" fill="#0066FF" stroke-linecap="round" stroke-linejoin="miter"></path></svg>